{
    "asset" : {
        "generator" : "Khronos glTF Blender I/O v1.8.19",
        "version" : "2.0"
    },
    "scene" : 0,
    "scenes" : [
        {
            "name" : "Scene",
            "nodes" : [
                0
            ]
        }
    ],
    "nodes" : [
        {
            "mesh" : 0,
            "name" : "Mike",
            "rotation" : [
                -0.3826834559440613,
                0,
                0,
                0.9238795042037964
            ],
            "translation" : [
                0,
                0.6208230257034302,
                0
            ]
        }
    ],
    "materials" : [
        {
            "doubleSided" : true,
            "name" : "Material",
            "pbrMetallicRoughness" : {
                "baseColorFactor" : [
                    0,
                    0.8000000715255737,
                    0.09899850189685822,
                    1
                ],
                "metallicFactor" : 0,
                "roughnessFactor" : 0.21176470816135406
            }
        }
    ],
    "meshes" : [
        {
            "name" : "Suzanne",
            "primitives" : [
                {
                    "attributes" : {
                        "POSITION" : 0,
                        "NORMAL" : 1,
                        "TEXCOORD_0" : 2
                    },
                    "indices" : 3,
                    "material" : 0
                }
            ]
        }
    ],
    "accessors" : [
        {
            "bufferView" : 0,
            "componentType" : 5126,
            "count" : 35502,
            "max" : [
                1.3287925720214844,
                0.9392362236976624,
                0.8226352334022522
            ],
            "min" : [
                -1.328792691230774,
                -0.971822202205658,
                -0.7782661318778992
            ],
            "type" : "VEC3"
        },
        {
            "bufferView" : 1,
            "componentType" : 5126,
            "count" : 35502,
            "type" : "VEC3"
        },
        {
            "bufferView" : 2,
            "componentType" : 5126,
            "count" : 35502,
            "type" : "VEC2"
        },
        {
            "bufferView" : 3,
            "componentType" : 5123,
            "count" : 188928,
            "type" : "SCALAR"
        }
    ],
    "bufferViews" : [
        {
            "buffer" : 0,
            "byteLength" : 426024,
            "byteOffset" : 0
        },
        {
            "buffer" : 0,
            "byteLength" : 426024,
            "byteOffset" : 426024
        },
        {
            "buffer" : 0,
            "byteLength" : 284016,
            "byteOffset" : 852048
        },
        {
            "buffer" : 0,
            "byteLength" : 377856,
            "byteOffset" : 1136064
        }
    ],
    "buffers" : [
        {
            "byteLength" : 1513920,
            "uri" : "data:application/octet-stream;base64,"
        }
    ]
}
